<?xml version="1.0" standalone="no"?>
<!DOCTYPE svg PUBLIC "-//W3C//DTD SVG 20010904//EN"
 "http://www.w3.org/TR/2001/REC-SVG-20010904/DTD/svg10.dtd">
<svg version="1.0" xmlns="http://www.w3.org/2000/svg"
 width="260.000000pt" height="260.000000pt" viewBox="0 0 260.000000 260.000000"
 preserveAspectRatio="xMidYMid meet">
<metadata>
Created by potrace 1.11, written by Peter Selinger 2001-2013
</metadata>
<g transform="translate(0.000000,260.000000) scale(0.100000,-0.100000)"
fill="#000000" stroke="none">
<path d="M1231 2571 c-8 -5 -23 -8 -33 -6 -10 2 -18 0 -18 -4 0 -4 -6 -8 -13
-8 -21 0 -107 -45 -107 -56 0 -6 -3 -8 -6 -4 -4 3 -27 -15 -53 -41 -51 -51
-117 -142 -104 -142 4 0 3 -4 -3 -8 -6 -4 -26 -36 -44 -72 -18 -36 -38 -68
-44 -72 -6 -4 -8 -8 -4 -8 4 0 -5 -24 -20 -52 -14 -29 -25 -56 -24 -60 1 -5
-2 -8 -6 -8 -5 0 -19 -25 -31 -55 -13 -30 -27 -55 -33 -55 -5 0 -7 -4 -3 -9 3
-5 -2 -17 -11 -25 -8 -9 -13 -16 -9 -16 3 0 0 -10 -7 -22 -7 -13 -11 -26 -10
-30 1 -5 -1 -8 -6 -8 -4 0 -13 -15 -21 -32 -8 -18 -21 -41 -29 -50 -8 -10 -12
-18 -8 -18 8 0 -55 -122 -69 -132 -5 -4 -7 -8 -3 -8 4 0 -14 -42 -39 -92 -63
-129 -110 -231 -111 -242 0 -5 -5 -12 -12 -16 -6 -4 -12 -13 -14 -21 -1 -8
-19 -49 -39 -92 -20 -43 -37 -83 -37 -88 0 -5 -5 -9 -11 -9 -5 0 -7 -4 -4 -10
3 -5 1 -10 -4 -10 -6 0 -10 -3 -9 -8 3 -8 -32 -93 -42 -102 -3 -3 -7 -14 -8
-25 -2 -11 -8 -22 -12 -25 -5 -3 -14 -27 -20 -53 -7 -26 -15 -47 -19 -47 -4 0
-8 -10 -9 -22 0 -13 -4 -65 -8 -117 -5 -74 -4 -95 7 -102 11 -7 11 -9 1 -9 -8
0 -10 -5 -5 -12 4 -7 8 -17 8 -23 1 -25 39 -126 51 -136 8 -6 14 -16 14 -21 0
-5 6 -16 12 -23 30 -33 38 -45 33 -45 -4 0 8 -12 26 -28 18 -15 46 -39 63 -54
16 -15 33 -25 38 -22 4 3 8 1 8 -5 0 -5 10 -13 23 -17 12 -4 24 -9 27 -13 9
-11 102 -41 111 -35 5 3 9 1 9 -4 0 -12 218 -13 225 -1 3 4 14 6 25 4 11 -2
20 1 20 7 0 6 3 9 6 5 3 -3 25 3 49 13 24 10 46 16 49 13 3 -4 6 -1 6 6 0 7 6
11 12 9 7 -3 21 4 32 14 11 10 32 24 48 30 15 7 28 16 28 20 0 5 5 8 10 8 6 0
16 5 23 10 7 6 27 24 46 40 19 17 39 30 43 30 5 0 6 5 3 10 -3 6 -2 10 4 10 6
0 34 24 63 53 34 34 59 52 71 49 9 -2 16 -7 14 -10 -2 -4 21 -30 50 -59 29
-28 53 -49 53 -47 0 3 17 -12 38 -33 20 -20 38 -35 39 -33 1 3 13 -5 27 -18
15 -12 30 -22 34 -22 5 0 18 -9 30 -20 12 -12 22 -18 22 -15 0 3 10 -1 23 -10
13 -8 27 -12 30 -8 4 3 7 1 7 -5 0 -7 4 -12 9 -12 5 0 22 -5 38 -12 15 -6 31
-11 36 -10 4 1 7 -4 7 -10 0 -9 4 -8 10 2 6 9 10 10 10 3 0 -6 9 -10 20 -8 11
2 20 0 20 -5 0 -11 208 -11 215 -1 2 5 16 7 30 6 14 -2 25 1 25 6 0 5 7 9 15
9 9 0 32 9 53 19 20 10 40 19 45 20 9 1 25 14 73 58 19 17 34 28 34 25 0 -4
24 27 54 68 30 41 54 77 54 80 -1 6 8 32 24 70 12 28 14 36 24 100 14 99 1
212 -32 287 -8 18 -15 36 -15 40 -1 5 -7 19 -15 33 -14 25 -77 161 -79 170 0
3 -11 24 -23 46 -11 23 -18 44 -15 48 4 3 1 6 -5 6 -7 0 -12 9 -12 20 0 11 -4
20 -9 20 -5 0 -12 10 -16 22 -9 29 -7 23 -40 93 -15 33 -29 63 -29 67 -1 4 -8
15 -16 25 -8 10 -15 25 -15 33 0 8 -4 18 -10 22 -5 4 -10 11 -10 15 -1 16 -59
128 -69 135 -6 4 -7 8 -3 8 4 0 -4 20 -18 43 -14 24 -25 51 -25 60 0 10 -3 17
-7 17 -9 0 -33 49 -33 67 0 7 -4 13 -10 13 -5 0 -10 9 -10 19 0 11 -3 21 -8
23 -4 2 -32 53 -62 113 -30 61 -60 117 -66 125 -7 8 -12 17 -12 20 1 10 -57
125 -64 128 -5 2 -8 12 -8 23 0 10 -4 19 -10 19 -5 0 -10 6 -10 13 -1 20 -68
119 -114 167 -55 56 -85 79 -113 86 -13 4 -23 10 -23 14 0 6 -58 22 -80 22 -3
0 -11 4 -17 10 -9 7 -13 7 -13 -2 0 -8 -4 -9 -12 -3 -16 12 -67 11 -87 -1 -10
-6 -12 -5 -7 2 9 14 6 15 -13 3z m119 -171 c0 -3 12 -7 28 -8 15 -1 29 -7 30
-12 2 -6 10 -10 17 -10 18 0 105 -88 105 -106 0 -8 7 -14 15 -14 8 0 14 -3 13
-7 -3 -10 84 -186 96 -194 5 -4 5 -12 2 -18 -4 -6 -3 -11 2 -11 5 0 19 -24 32
-52 13 -29 33 -66 45 -83 11 -16 18 -31 17 -33 -6 -5 23 -62 30 -62 5 0 8 -9
8 -20 0 -11 5 -20 10 -20 6 0 10 -6 10 -12 0 -17 62 -142 72 -146 5 -2 6 -8 2
-13 -3 -5 0 -9 5 -9 6 0 10 -3 9 -7 -3 -10 34 -86 45 -94 5 -3 8 -9 7 -13 -1
-4 8 -26 18 -49 11 -23 43 -90 71 -149 28 -59 51 -112 51 -118 0 -5 5 -10 10
-10 6 0 10 -5 10 -11 0 -5 12 -36 27 -67 15 -31 26 -60 25 -64 -1 -5 3 -8 9
-8 6 0 9 -6 6 -14 -3 -8 1 -17 9 -20 8 -3 13 -9 12 -13 -1 -4 7 -26 17 -48 10
-22 19 -42 20 -45 2 -3 6 -15 10 -28 4 -12 10 -22 14 -22 4 0 7 -10 8 -22 1
-11 8 -25 15 -29 7 -5 10 -9 6 -9 -4 0 -3 -11 2 -26 26 -68 27 -218 2 -259 -4
-5 -8 -19 -9 -30 -2 -10 -7 -22 -11 -25 -5 -3 -18 -21 -30 -41 -12 -20 -39
-51 -60 -69 -44 -39 -155 -93 -161 -78 -2 6 -6 6 -11 -1 -9 -15 -180 -15 -197
-1 -2 2 -6 3 -10 4 -5 1 -18 7 -29 14 -12 6 -24 8 -28 5 -3 -3 -6 -1 -6 6 0 7
-4 10 -9 7 -5 -3 -14 1 -21 9 -7 8 -16 15 -21 15 -15 0 -93 53 -107 72 -7 10
-17 18 -22 18 -9 0 -121 108 -148 141 -10 13 -8 21 13 45 40 46 42 48 115 160
38 59 67 110 65 114 -3 5 2 11 11 14 9 4 14 13 10 21 -3 8 -1 15 4 15 6 0 10
6 10 14 0 8 7 22 16 31 9 9 14 19 10 22 -3 3 -1 12 5 20 6 7 8 13 5 13 -4 0
-1 10 6 23 7 12 11 26 10 30 -1 4 3 17 8 28 6 11 13 39 15 62 2 23 4 42 5 42
1 0 3 17 5 38 2 23 -1 37 -8 37 -8 0 -8 3 -2 8 15 11 17 32 3 32 -8 0 -9 3 -1
11 10 10 6 29 -27 114 -6 17 -10 30 -9 30 7 0 -40 54 -87 101 -43 44 -121 92
-159 100 -5 1 -12 3 -15 4 -35 13 -173 18 -227 7 -17 -4 -52 -16 -77 -27 -26
-11 -50 -21 -54 -22 -17 -6 -128 -108 -117 -108 3 0 -4 -9 -14 -19 -10 -10
-25 -35 -32 -55 -7 -20 -16 -36 -19 -36 -4 0 -6 -10 -5 -22 1 -13 -2 -28 -7
-35 -12 -15 -16 -173 -4 -173 4 0 6 -6 3 -14 -3 -8 -3 -17 1 -21 4 -3 7 -12 7
-18 4 -58 111 -314 137 -325 5 -2 8 -9 8 -16 0 -7 9 -23 20 -36 11 -13 20 -29
20 -36 0 -7 4 -14 8 -16 5 -2 26 -28 48 -58 21 -30 44 -61 51 -68 15 -16 17
-46 3 -37 -5 3 -10 2 -10 -4 0 -8 -50 -59 -139 -141 -42 -38 -207 -138 -195
-118 4 7 -2 4 -14 -6 -12 -11 -22 -17 -22 -14 0 4 -19 1 -43 -6 -47 -14 -183
-12 -201 3 -6 5 -25 12 -41 15 -17 3 -36 14 -43 23 -7 10 -15 16 -17 13 -5 -7
-105 82 -100 90 2 3 -8 19 -22 34 -14 15 -22 30 -19 33 3 3 1 12 -4 18 -6 7
-11 24 -12 39 -1 14 -5 26 -9 26 -6 0 -5 142 1 148 1 1 3 10 5 20 1 9 5 25 9
34 4 9 9 22 10 30 2 7 10 30 20 50 9 21 16 42 16 48 0 5 5 10 10 10 6 0 10 5
10 11 0 5 11 35 25 65 14 30 24 55 22 57 -1 1 8 16 20 33 12 17 20 34 16 38
-3 3 0 6 7 6 7 0 11 3 7 6 -3 3 7 31 23 63 15 31 31 66 35 79 3 12 11 22 16
22 6 0 8 4 4 9 -3 5 0 15 7 23 7 7 14 18 15 24 4 20 147 309 155 312 5 2 6 7
3 12 -3 5 2 16 11 24 8 9 13 16 11 16 -4 0 82 174 100 203 4 7 8 14 8 17 0 7
89 184 95 190 7 7 50 99 50 105 -1 3 6 13 15 21 8 9 13 19 10 24 -3 5 -2 10 2
12 5 1 15 16 24 32 23 41 82 115 92 116 5 0 21 9 37 20 15 11 30 17 34 13 3
-3 6 -1 6 6 0 7 3 10 8 8 4 -3 15 -2 25 2 22 8 107 9 107 1z m60 -946 c86 -40
140 -115 145 -203 1 -21 5 -43 9 -50 4 -6 3 -11 -1 -11 -5 0 -8 -18 -7 -41 0
-22 -5 -47 -12 -54 -7 -7 -11 -15 -8 -17 12 -13 -92 -239 -128 -277 -10 -12
-16 -21 -13 -21 3 0 -15 -28 -40 -62 -25 -34 -45 -65 -45 -68 0 -18 -33 -3
-48 22 -9 15 -20 28 -24 28 -4 0 -8 5 -8 11 0 6 -13 28 -30 49 -16 21 -30 43
-30 49 0 6 -4 11 -10 11 -5 0 -10 7 -10 15 0 8 -5 15 -11 15 -5 0 -7 5 -4 10
3 6 1 10 -4 10 -6 0 -11 3 -10 8 2 13 -13 52 -21 52 -7 0 -61 151 -64 180 -1
9 -5 21 -10 28 -4 7 -2 12 5 12 7 0 8 4 2 13 -11 14 -11 97 1 115 4 6 5 16 1
21 -3 5 2 16 10 25 9 8 15 18 14 22 -3 11 63 84 76 84 7 0 15 5 17 12 2 6 15
13 28 15 14 2 28 7 32 11 17 17 152 7 198 -14z"/>
</g>
</svg>
